<svg width="60" height="60" viewBox="0 0 60 60" fill="none" xmlns="http://www.w3.org/2000/svg">
<rect width="60" height="60" rx="30" fill="#E6E6E6"/>
<path d="M28.5 15H25.5C18 15 15 18 15 25.5V34.5C15 42 18 45 25.5 45H34.5C42 45 45 42 45 34.5V31.5" stroke="black" stroke-width="2.25" stroke-linecap="round" stroke-linejoin="round"/>
<path d="M36.0608 16.5299L24.2408 28.3499C23.7908 28.7999 23.3408 29.6849 23.2508 30.3299L22.6058 34.8449C22.3658 36.4799 23.5208 37.6199 25.1558 37.3949L29.6708 36.7499C30.3008 36.6599 31.1858 36.2099 31.6508 35.7599L43.4708 23.9399C45.5108 21.8999 46.4708 19.5299 43.4708 16.5299C40.4708 13.5299 38.1008 14.4899 36.0608 16.5299Z" stroke="black" stroke-width="2.25" stroke-miterlimit="10" stroke-linecap="round" stroke-linejoin="round"/>
<path d="M34.3652 18.2256C35.3702 21.8106 38.1752 24.6156 41.7752 25.6356" stroke="black" stroke-width="2.25" stroke-miterlimit="10" stroke-linecap="round" stroke-linejoin="round"/>
</svg>
